PathFileType	4	(X/Y/Z)	S:\OneDrive - The University of Tokyo\ìåëÂéˆã∆\ÉoÉCÉÅÉJ\ë™íË\hirabayashi_2\Trimmed\Trimmed_BarRL0kg1.trc
DataRate	CameraRate	NumFrames	NumMarkers	Units	OrigDataRate	OrigDataStartFrame	OrigNumFrames
200.00	200.00	       22	12	mm	200.00	1	       234
Frame#	Time	BarR0			BarR50			BarR100			BarR130			BarR180			BarR230			BarL0			BarL50			BarL100			BarL130			BarL180			BarL230			
		X1	Y1	Z1	X2	Y2	Z2	X3	Y3	Z3	X4	Y4	Z4	X5	Y5	Z5	X6	Y6	Z6	X7	Y7	Z7	X8	Y8	Z8	X9	Y9	Z9	X10	Y10	Z10	X11	Y11	Z11	X12	Y12	Z12	

1	0.000	-576.00983	2755.46655	1664.48962	-604.87347	2306.32593	1662.45728	-637.29712	1851.93091	1662.10718	-660.73456	1349.43872	1662.12085	-690.07623	902.82617	1662.88916	-713.78821	454.77280	1664.13342	-1113.93005	2808.31689	1664.63501	-1140.91492	2356.55835	1667.99280	-1171.51843	1906.14197	1668.92761	-1199.10425	1404.01208	1669.08069	-1226.85400	952.72247	1668.40674	-1244.74963	506.51895	1667.61804	
2	0.005	-575.99896	2755.47681	1664.47510	-604.88593	2306.34277	1662.45959	-637.33594	1851.93872	1662.13623	-660.74481	1349.42517	1662.13330	-690.09521	902.78723	1662.87610	-713.79218	454.76230	1664.12805	-1113.94336	2808.32080	1664.62231	-1140.92334	2356.56201	1667.99792	-1171.50366	1906.12549	1668.92065	-1199.11560	1404.06311	1669.09558	-1226.85706	952.72711	1668.40881	-1244.75256	506.51074	1667.62842	
3	0.010	-575.98950	2755.45752	1664.47559	-604.93469	2306.32861	1662.47205	-637.31842	1851.95898	1662.12451	-660.76575	1349.44824	1662.11292	-690.07373	902.82214	1662.88513	-713.78546	454.76791	1664.13074	-1113.91541	2808.34546	1664.62170	-1140.91699	2356.56323	1668.00757	-1171.53162	1906.13562	1668.91003	-1199.11316	1404.02979	1669.08789	-1226.85571	952.72845	1668.40894	-1244.74023	506.50000	1667.63196	
4	0.015	-575.99512	2755.46851	1664.49463	-604.90967	2306.34448	1662.47864	-637.32892	1851.92834	1662.11255	-660.76447	1349.46094	1662.13928	-690.08972	902.85095	1662.88818	-713.78082	454.77148	1664.13965	-1113.87170	2808.33301	1664.65198	-1140.89343	2356.55957	1668.00403	-1171.52185	1906.10657	1668.92175	-1199.12146	1404.03247	1669.08740	-1226.84937	952.72449	1668.40234	-1244.75000	506.51843	1667.63550	
5	0.020	-575.98938	2755.48315	1664.49683	-604.89087	2306.35522	1662.48596	-637.33667	1851.92517	1662.11450	-660.75043	1349.44128	1662.11707	-690.09210	902.81665	1662.88708	-713.80347	454.78311	1664.12280	-1113.92224	2808.36084	1664.63171	-1140.89844	2356.55884	1667.99353	-1171.48547	1906.13135	1668.92273	-1199.12439	1404.01941	1669.07813	-1226.86621	952.71741	1668.40771	-1244.76538	506.48889	1667.62671	
6	0.025	-575.98981	2755.49121	1664.47461	-604.88928	2306.32007	1662.46790	-637.33966	1851.92822	1662.13574	-660.75317	1349.38989	1662.13416	-690.09741	902.81323	1662.89758	-713.79187	454.76923	1664.12415	-1113.83740	2808.34448	1664.65576	-1140.90063	2356.56494	1668.00330	-1171.50745	1906.12305	1668.90222	-1199.11792	1404.02197	1669.07117	-1226.85876	952.71716	1668.40063	-1244.74841	506.51218	1667.61670	
7	0.030	-575.99213	2755.47534	1664.48938	-604.89423	2306.34253	1662.46716	-637.32886	1851.95313	1662.11975	-660.75525	1349.45129	1662.12280	-690.10278	902.84296	1662.88391	-713.79358	454.77179	1664.11743	-1113.92542	2808.31445	1664.63635	-1140.90088	2356.56177	1667.99890	-1171.51025	1906.11609	1668.90857	-1199.12122	1404.02625	1669.08228	-1226.85718	952.70660	1668.39636	-1244.72876	506.48911	1667.61951	
8	0.035	-575.99493	2755.47974	1664.47705	-604.88965	2306.34058	1662.47571	-637.31067	1851.91321	1662.12024	-660.74768	1349.44214	1662.10815	-690.10504	902.81555	1662.87805	-713.78369	454.76736	1664.12183	-1113.87598	2808.32764	1664.62085	-1140.88855	2356.55981	1667.98962	-1171.54114	1906.15198	1668.91187	-1199.12927	1404.00342	1669.07983	-1226.86255	952.71735	1668.40552	-1244.76160	506.52649	1667.62329	
9	0.040	-576.00470	2755.48999	1664.47705	-604.90131	2306.34180	1662.46948	-637.31586	1851.97595	1662.13904	-660.76929	1349.44592	1662.12842	-690.11542	902.79291	1662.88843	-713.77454	454.76193	1664.12280	-1113.89331	2808.31372	1664.64136	-1140.91028	2356.56543	1667.99231	-1171.51245	1906.10828	1668.92517	-1199.11499	1404.04529	1669.10547	-1226.85950	952.73553	1668.41101	-1244.75964	506.50894	1667.63049	
10	0.045	-575.98865	2755.48071	1664.48547	-604.90869	2306.34473	1662.46924	-637.34796	1851.94153	1662.13086	-660.74780	1349.42090	1662.12219	-690.09094	902.82190	1662.89600	-713.77966	454.77515	1664.14148	-1113.86475	2808.36304	1664.62781	-1140.90503	2356.56396	1668.00452	-1171.48596	1906.12317	1668.93384	-1199.11340	1404.02966	1669.09033	-1226.85559	952.72662	1668.39990	-1244.75208	506.51428	1667.62756	
11	0.050	-575.97729	2755.48560	1664.46484	-604.88306	2306.34668	1662.45459	-637.32550	1851.96118	1662.13171	-660.77728	1349.43298	1662.12109	-690.09430	902.82965	1662.89709	-713.78479	454.77130	1664.13647	-1113.90088	2808.33057	1664.63062	-1140.92212	2356.56519	1667.98413	-1171.48682	1906.14600	1668.92712	-1199.12354	1404.03503	1669.06641	-1226.86414	952.70612	1668.39209	-1244.75513	506.50818	1667.64001	
12	0.055	-575.98975	2755.50464	1664.47632	-604.87976	2306.35254	1662.45459	-637.34546	1851.96130	1662.13232	-660.75269	1349.45776	1662.10938	-690.07434	902.81476	1662.88647	-713.77997	454.74847	1664.12402	-1113.91150	2808.35303	1664.63025	-1140.90491	2356.55933	1667.99414	-1171.49927	1906.12488	1668.93591	-1199.11353	1404.05786	1669.08911	-1226.85803	952.73108	1668.41248	-1244.76062	506.50986	1667.61816	
13	0.060	-576.00061	2755.50732	1664.47192	-604.89545	2306.32544	1662.46423	-637.34766	1851.92456	1662.12634	-660.75366	1349.43237	1662.12402	-690.09009	902.82739	1662.89868	-713.78351	454.76337	1664.12585	-1113.88623	2808.36328	1664.61804	-1140.94421	2356.57202	1667.98376	-1171.53284	1906.13623	1668.92029	-1199.11792	1404.03784	1669.09558	-1226.85681	952.71143	1668.40308	-1244.75281	506.51801	1667.62280	
14	0.065	-575.99414	2755.50562	1664.47656	-604.88086	2306.33691	1662.46594	-637.34100	1851.95605	1662.11182	-660.75916	1349.45142	1662.12134	-690.09003	902.85809	1662.88696	-713.79620	454.76080	1664.11914	-1113.87402	2808.34277	1664.60669	-1140.92676	2356.55347	1668.00110	-1171.50281	1906.13379	1668.92786	-1199.09863	1404.03186	1669.08801	-1226.85986	952.73181	1668.40442	-1244.75110	506.52115	1667.62549	
15	0.070	-575.98364	2755.49316	1664.47693	-604.88379	2306.34741	1662.46777	-637.29462	1851.91284	1662.12317	-660.76971	1349.41956	1662.11108	-690.11261	902.83350	1662.88354	-713.79810	454.75430	1664.12671	-1113.87256	2808.36108	1664.64172	-1140.92273	2356.57422	1667.99524	-1171.48071	1906.13245	1668.91711	-1199.10547	1404.05273	1669.10291	-1226.87292	952.70135	1668.40417	-1244.75415	506.50665	1667.63086	
16	0.075	-575.97858	2755.48291	1664.47717	-604.91345	2306.38379	1662.48010	-637.34766	1851.95264	1662.12463	-660.74725	1349.42651	1662.12244	-690.09729	902.82648	1662.88965	-713.79669	454.77695	1664.13269	-1113.92786	2808.36182	1664.64136	-1140.88965	2356.56323	1668.00952	-1171.52747	1906.14417	1668.91492	-1199.11670	1404.03711	1669.10938	-1226.84424	952.73700	1668.40808	-1244.75842	506.51123	1667.62720	
17	0.080	-575.98975	2755.49170	1664.47827	-604.87799	2306.34717	1662.46558	-637.32599	1851.96350	1662.14087	-660.75732	1349.45313	1662.12671	-690.10461	902.81726	1662.88367	-713.79401	454.77341	1664.12915	-1113.83032	2808.36621	1664.62085	-1140.93176	2356.56543	1667.99329	-1171.50024	1906.12708	1668.92224	-1199.12109	1404.03760	1669.09790	-1226.85962	952.72693	1668.40576	-1244.75293	506.52097	1667.61438	
18	0.085	-576.00140	2755.48682	1664.47083	-604.89099	2306.35132	1662.45544	-637.33490	1851.98108	1662.10315	-660.76868	1349.43079	1662.11487	-690.11371	902.82098	1662.87427	-713.78076	454.77805	1664.12732	-1113.87976	2808.35938	1664.63586	-1140.92883	2356.58032	1667.98877	-1171.49500	1906.14001	1668.92651	-1199.11035	1404.02393	1669.09302	-1226.85596	952.72034	1668.40393	-1244.74902	506.49265	1667.62061	
19	0.090	-575.99432	2755.47388	1664.49146	-604.88141	2306.34937	1662.46545	-637.33429	1851.99255	1662.10913	-660.73663	1349.44312	1662.11877	-690.10211	902.83411	1662.88562	-713.79761	454.75052	1664.13135	-1113.88892	2808.34521	1664.61719	-1140.89001	2356.56543	1667.99915	-1171.52795	1906.14819	1668.91785	-1199.11548	1404.04114	1669.07727	-1226.85559	952.69659	1668.40344	-1244.75769	506.52228	1667.63062	
20	0.095	-575.98248	2755.47754	1664.47583	-604.87964	2306.35034	1662.47144	-637.31891	1851.93042	1662.13062	-660.75482	1349.47021	1662.12354	-690.10895	902.84338	1662.88574	-713.80493	454.78131	1664.13013	-1113.85547	2808.33667	1664.62781	-1140.91028	2356.56958	1667.98438	-1171.51086	1906.13293	1668.91406	-1199.11682	1404.00012	1669.09412	-1226.86060	952.71948	1668.40527	-1244.75854	506.50061	1667.62781	
21	0.100	-575.99243	2755.46851	1664.49829	-604.86279	2306.35132	1662.46045	-637.34576	1851.95422	1662.12402	-660.76135	1349.46008	1662.13098	-690.09344	902.81708	1662.87268	-713.79138	454.76462	1664.13379	-1113.88477	2808.35425	1664.64246	-1140.91211	2356.57373	1668.01270	-1171.49890	1906.14575	1668.91443	-1199.12012	1404.04688	1669.08618	-1226.87231	952.70856	1668.41443	-1244.74939	506.52271	1667.62830	
22	0.105	-575.98364	2755.47168	1664.48975	-604.90027	2306.36475	1662.46252	-637.34216	1851.93445	1662.12427	-660.73663	1349.44775	1662.13416	-690.09027	902.78979	1662.90112	-713.78894	454.78433	1664.12927	-1113.87573	2808.36304	1664.64478	-1140.92224	2356.57813	1668.00342	-1171.51794	1906.12891	1668.91541	-1199.11475	1404.01404	1669.08704	-1226.85986	952.74139	1668.40979	-1244.76794	506.50507	1667.62683	
